#!OML:ASF F:\VICON\USERDATA\INSTALL\rory3\rory3.ASF
:FULLY-SPECIFIED
:DEGREES
989
root 0.156114 17.9393 13.3456 0.410057 -3.74697 -357.39
lowerback 3.8744 -0.838068 -1.67837
upperback -0.0850329 -1.14954 1.97378
thorax -2.18622 -0.545286 3.0386
lowerneck -16.9938 -0.12802 -10.3193
upperneck 37.4605 2.64759 2.08813
head 16.0986 -0.103544 3.20906
rclavicle 5.46658e-015 1.19271e-014
rhumerus -36.3407 -8.8932 -76.507
rradius 37.0086
rwrist 18.2478
rhand -20.6601 1.61168
rfingers 7.12502
rthumb 5.70254 -28.2916
lclavicle 5.46658e-015 1.19271e-014
lhumerus -33.3424 11.958 82.8102
lradius 32.7403
lwrist -10.373
lhand -15.1511 25.9477
lfingers 7.12502
lthumb 11.019 55.6385
rfemur -10.8108 6.20324 23.2057
rtibia 34.7055
rfoot -10.4548 1.35483
rtoes 9.49111
lfemur -24.6308 0.161818 -20.9397
ltibia 57.648
lfoot -13.4562 3.033
ltoes -16.8186
990
root 0.184589 17.9704 13.4062 0.564152 -4.42552 -357.383
lowerback 3.67183 -0.682438 -1.59191
upperback -0.0411593 -0.936889 1.97669
thorax -2.04248 -0.442448 2.97711
lowerneck -17.2733 -0.213986 -10.3626
upperneck 37.3258 2.57693 2.05675
head 16.1056 -0.140135 3.19079
rclavicle 1.03368e-014 1.19271e-014
rhumerus -36.1881 -8.33241 -76.8594
rradius 37.6133
rwrist 18.7114
rhand -20.6852 1.81352
rfingers 7.12502
rthumb 5.6783 -28.0904
lclavicle 1.03368e-014 1.19271e-014
lhumerus -33.5372 11.967 82.9725
lradius 32.6418
lwrist -9.46776
lhand -14.9325 26.672
lfingers 7.12502
lthumb 11.2298 56.3514
rfemur -10.7184 6.48294 23.0239
rtibia 34.4657
rfoot -9.99649 1.64111
rtoes 8.69948
lfemur -24.1892 -0.692476 -20.6766
ltibia 54.7974
lfoot -13.5267 1.29704
ltoes -18.1493
991
root 0.215985 18.0026 13.4665 0.779095 -5.10482 -357.228
lowerback 3.46767 -0.564961 -1.60448
upperback -0.0732883 -0.780296 1.91253
thorax -1.97155 -0.364993 2.90705
lowerneck -17.3591 -0.178701 -10.0461
upperneck 37.0829 2.6492 1.71626
head 16.01 -0.103755 2.99314
rclavicle -1.60519e-014 -2.38542e-014
rhumerus -36.0014 -7.61656 -77.2864
rradius 38.0704
rwrist 19.0274
rhand -20.7159 1.89694
rfingers 7.12502
rthumb 5.64865 -28.0078
lclavicle -1.60519e-014 -2.38542e-014
lhumerus -33.888 11.9776 83.0347
lradius 32.6867
lwrist -8.42463
lhand -14.9595 26.9848
lfingers 7.12502
lthumb 11.2038 56.6656
rfemur -10.759 6.6225 22.6498
rtibia 34.3154
rfoot -9.55571 2.03052
rtoes 7.21407
lfemur -23.7427 -1.64161 -20.5917
ltibia 51.8826
lfoot -13.4965 -0.492609
ltoes -18.449
992
root 0.246405 18.0285 13.5249 0.92889 -5.79943 -357.048
lowerback 3.37565 -0.457883 -1.61809
upperback -0.122378 -0.639036 1.80752
thorax -1.98015 -0.294138 2.79855
lowerneck -17.2825 -0.142849 -9.87721
upperneck 36.7647 2.64034 1.65022
head 15.8331 -0.0778183 2.92232
rclavicle 5.01931e-015 7.95139e-016
rhumerus -35.9045 -6.93269 -77.7238
rradius 38.5478
rwrist 19.2118
rhand -20.6752 1.81657
rfingers 7.12502
rthumb 5.68797 -28.0871
lclavicle 5.01931e-015 7.95139e-016
lhumerus -34.3003 11.9264 83.0166
lradius 32.7224
lwrist -6.93224
lhand -15.0383 27.1682
lfingers 7.12502
lthumb 11.1279 56.8532
rfemur -10.8037 6.82727 22.2638
rtibia 34.2699
rfoot -9.13452 2.44144
rtoes 6.9166
lfemur -23.225 -2.62201 -20.5282
ltibia 48.9428
lfoot -13.3434 -2.21162
ltoes -19.0146
993
root 0.275212 18.0431 13.5829 1.00987 -6.59304 -356.844
lowerback 3.26081 -0.334629 -1.68339
upperback -0.0789946 -0.478577 1.69522
thorax -1.88119 -0.215553 2.71011
lowerneck -17.4658 -0.218299 -9.9684
upperneck 36.5272 2.52566 1.76319
head 15.7628 -0.113868 2.96242
rclavicle 2.04251e-014 1.59028e-015
rhumerus -35.705 -6.22179 -78.2013
rradius 39.0595
rwrist 19.1917
rhand -20.908 2.15305
rfingers 7.12502
rthumb 5.46317 -27.7565
lclavicle 2.04251e-014 1.59028e-015
lhumerus -34.6116 12.0483 82.9287
lradius 32.8253
lwrist -5.20831
lhand -14.7469 27.6416
lfingers 7.12502
lthumb 11.4089 57.3112
rfemur -10.8328 7.17555 21.8659
rtibia 34.3295
rfoot -8.74218 2.78979
rtoes 7.82997
lfemur -22.5979 -3.58184 -20.464
ltibia 45.9856
lfoot -13.1662 -4.09441
ltoes -19.8527
994
root 0.303183 18.055 13.6421 1.11673 -7.39112 -356.788
lowerback 3.14397 -0.20787 -1.62811
upperback -0.0728752 -0.307284 1.64532
thorax -1.82004 -0.131542 2.61847
lowerneck -17.607 -0.342618 -10.0844
upperneck 36.268 2.37901 1.77652
head 15.6796 -0.179971 2.95659
rclavicle -9.59136e-015 7.95139e-016
rhumerus -35.4728 -5.50873 -78.6382
rradius 39.4609
rwrist 18.8163
rhand -21.371 3.43263
rfingers 7.12502
rthumb 5.0161 -26.488
lclavicle -9.59136e-015 7.95139e-016
lhumerus -35.0642 12.2459 82.8382
lradius 33.0337
lwrist -3.72201
lhand -14.2847 28.1359
lfingers 7.12502
lthumb 11.8546 57.7803
rfemur -10.9168 7.54079 21.6372
rtibia 34.4661
rfoot -8.44781 3.08429
rtoes 8.08589
lfemur -21.9294 -4.53849 -20.2197
ltibia 43.0461
lfoot -13.0661 -6.04814
ltoes -20.794
995
root 0.330245 18.0673 13.7003 1.18626 -8.20955 -356.694
lowerback 3.14171 -0.0681853 -1.60757
upperback -0.10864 -0.121556 1.5631
thorax -1.86635 -0.0384038 2.51367
lowerneck -17.7016 -0.428704 -10.1647
upperneck 36.0871 2.22597 1.91496
head 15.6201 -0.228984 2.99891
rclavicle 4.12478e-015 0
rhumerus -35.2764 -4.89861 -79.0368
rradius 39.8262
rwrist 18.5204
rhand -21.5514 4.28839
rfingers 7.12502
rthumb 4.84195 -25.6363
lclavicle 4.12478e-015 0
lhumerus -35.5087 12.3032 82.7017
lradius 33.1212
lwrist -2.61455
lhand -13.758 28.4817
lfingers 7.12502
lthumb 12.3624 58.0962
rfemur -11.0012 7.88487 21.3777
rtibia 34.6284
rfoot -8.15704 3.41323
rtoes 8.61753
lfemur -21.2405 -5.42943 -20.0431
ltibia 40.1924
lfoot -12.9834 -8.0244
ltoes -21.6465
